<?xml version="1.0" encoding="UTF-8" standalone="no"?>
<!-- Created with Inkscape (http://www.inkscape.org/) -->

<svg
   xmlns:dc="http://purl.org/dc/elements/1.1/"
   xmlns:cc="http://creativecommons.org/ns#"
   xmlns:rdf="http://www.w3.org/1999/02/22-rdf-syntax-ns#"
   xmlns:svg="http://www.w3.org/2000/svg"
   xmlns="http://www.w3.org/2000/svg"
   xmlns:sodipodi="http://sodipodi.sourceforge.net/DTD/sodipodi-0.dtd"
   xmlns:inkscape="http://www.inkscape.org/namespaces/inkscape"
   width="300"
   height="60"
   id="svg2"
   version="1.1"
   inkscape:version="0.48.3.1 r9886"
   sodipodi:docname="logo.png">
  <defs
     id="defs4" />
  <sodipodi:namedview
     id="base"
     pagecolor="#ffffff"
     bordercolor="#666666"
     borderopacity="1.0"
     inkscape:pageopacity="0.0"
     inkscape:pageshadow="2"
     inkscape:zoom="1.979899"
     inkscape:cx="31.188671"
     inkscape:cy="45.192343"
     inkscape:document-units="px"
     inkscape:current-layer="g3828"
     showgrid="false"
     inkscape:window-width="1278"
     inkscape:window-height="472"
     inkscape:window-x="0"
     inkscape:window-y="232"
     inkscape:window-maximized="0" />
  <metadata
     id="metadata7">
    <rdf:RDF>
      <cc:Work
         rdf:about="">
        <dc:format>image/svg+xml</dc:format>
        <dc:type
           rdf:resource="http://purl.org/dc/dcmitype/StillImage" />
        <dc:title></dc:title>
      </cc:Work>
    </rdf:RDF>
  </metadata>
  <g
     inkscape:label="Layer 1"
     inkscape:groupmode="layer"
     id="layer1">
    <g
       id="g3828"
       transform="matrix(1.9094296,0,0,1.9094296,-85.635193,8.1991951)">
      <g
         id="g3889"
         transform="matrix(1.1984616,0,0,1.1984616,-24.217055,-20.739204)"
         inkscape:export-filename="/home/arkusc/html/images/logo.png"
         inkscape:export-xdpi="90"
         inkscape:export-ydpi="90"
         style="fill:#f9f9f9;fill-opacity:1;opacity:1">
        <g
           transform="translate(29.294424,0)"
           id="g3821"
           style="fill:#f9f9f9;fill-opacity:1">
          <g
             transform="matrix(1.5954222,0,0,1.5954222,-38.019442,-17.409148)"
             id="text3014"
             style="font-size:40px;font-style:normal;font-variant:normal;font-weight:500;font-stretch:normal;line-height:125%;letter-spacing:-4.07999991999999967px;word-spacing:0px;opacity:0.76618706000000003;fill:#f9f9f9;fill-opacity:1;stroke:#4d4d4d;stroke-width:0;stroke-miterlimit:4;stroke-dasharray:none;font-family:Ubuntu;-inkscape-font-specification:Ubuntu Medium">
            <path
               inkscape:connector-curvature="0"
               id="path3803"
               style="font-size:20px;font-weight:bold;line-height:130.99999428000000989%;letter-spacing:-3.20999932000000010px;fill:#f9f9f9;fill-opacity:1;stroke:#4d4d4d;stroke-width:0;stroke-miterlimit:4;stroke-dasharray:none;font-family:Ubuntu Mono;-inkscape-font-specification:Ubuntu Mono Bold"
               d="m 45.5992,31.609765 c 0.06666,0.01334 0.139997,0.02 0.22,0.02 0.08,2e-6 0.15333,2e-6 0.22,0 0.559996,2e-6 1.026662,-0.106664 1.4,-0.32 0.386661,-0.21333 0.693328,-0.506663 0.92,-0.88 0.239994,-0.373329 0.40666,-0.813329 0.5,-1.32 0.10666,-0.519994 0.159993,-1.086661 0.16,-1.7 -7e-6,-0.533326 -0.04001,-1.053326 -0.12,-1.56 -0.08001,-0.506658 -0.220006,-0.953324 -0.42,-1.34 -0.200006,-0.386657 -0.473339,-0.693323 -0.82,-0.92 -0.346672,-0.239989 -0.793338,-0.359989 -1.34,-0.36 -0.106671,1.1e-5 -0.22667,0.0067 -0.36,0.02 -0.133337,1.1e-5 -0.253337,0.01334 -0.36,0.04 l 0,8.32 m 5.92,-4.2 c -9e-6,1.146672 -0.146676,2.126671 -0.44,2.94 -0.280008,0.800003 -0.673341,1.453336 -1.18,1.96 -0.506674,0.506668 -1.11334,0.880001 -1.82,1.12 -0.693338,0.226667 -1.460004,0.34 -2.3,0.34 -0.440003,0 -0.873336,-0.02667 -1.3,-0.08 -0.413335,-0.04 -0.860001,-0.113333 -1.34,-0.22 l 0,-12.08 c 0.559999,-0.119987 1.086665,-0.199987 1.58,-0.24 0.49333,-0.03999 0.95333,-0.05999 1.38,-0.06 0.813329,1.3e-5 1.553328,0.120013 2.22,0.36 0.679993,0.240012 1.253326,0.620012 1.72,1.14 0.466659,0.506678 0.826658,1.16001 1.08,1.96 0.266658,0.786675 0.399991,1.740008 0.4,2.86" />
            <path
               inkscape:connector-curvature="0"
               id="path3805"
               style="font-size:20px;font-weight:bold;line-height:130.99999428000000989%;letter-spacing:-3.20999932000000010px;fill:#f9f9f9;fill-opacity:1;stroke:#4d4d4d;stroke-width:0;stroke-miterlimit:4;stroke-dasharray:none;font-family:Ubuntu Mono;-inkscape-font-specification:Ubuntu Mono Bold"
               d="m 58.289201,25.4805 c -9e-6,0.746671 -0.106676,1.42667 -0.32,2.04 -0.213342,0.600003 -0.513342,1.120002 -0.9,1.56 -0.386674,0.440001 -0.85334,0.780001 -1.4,1.02 -0.533339,0.24 -1.133339,0.36 -1.8,0.36 -0.666671,0 -1.273337,-0.12 -1.82,-0.36 -0.533336,-0.239999 -1.000002,-0.579999 -1.4,-1.02 -0.386668,-0.439998 -0.686668,-0.959997 -0.9,-1.56 -0.213334,-0.61333 -0.32,-1.293329 -0.32,-2.04 0,-0.733327 0.106666,-1.399993 0.32,-2 0.226666,-0.613326 0.533332,-1.133325 0.92,-1.56 0.399998,-0.439991 0.873331,-0.773324 1.42,-1 0.546663,-0.23999 1.139996,-0.35999 1.78,-0.36 0.653328,10e-6 1.246661,0.12001 1.78,0.36 0.54666,0.226676 1.013326,0.560009 1.4,1 0.399992,0.426675 0.706658,0.946674 0.92,1.56 0.213324,0.600007 0.319991,1.266673 0.32,2 m -6.36,0.02 c -3e-6,0.840004 0.146664,1.520004 0.44,2.04 0.306663,0.520003 0.793329,0.780002 1.46,0.78 0.639995,2e-6 1.119994,-0.259997 1.44,-0.78 0.333327,-0.519996 0.499993,-1.199996 0.5,-2.04 -7e-6,-0.839994 -0.15334,-1.513327 -0.46,-2.02 -0.293339,-0.519992 -0.773339,-0.779992 -1.44,-0.78 -0.640004,8e-6 -1.12667,0.260008 -1.46,0.78 -0.320003,0.506673 -0.480003,1.180006 -0.48,2.02" />
            <path
               sodipodi:nodetypes="csccccccccccsccsccccscscc"
               inkscape:connector-curvature="0"
               id="path3807"
               style="font-size:20px;font-weight:bold;line-height:130.99999428000000989%;letter-spacing:-3.20999932000000010px;fill:#f9f9f9;fill-opacity:1;stroke:#4d4d4d;stroke-width:0;stroke-miterlimit:4;stroke-dasharray:none;font-family:Ubuntu Mono;-inkscape-font-specification:Ubuntu Mono Bold"
               d="m 55.957836,25.589786 c -10e-7,-0.679994 0.106666,-1.319993 0.32,-1.92 0.213332,-0.599992 0.539998,-1.119992 0.98,-1.56 0.439997,-0.453324 0.99333,-0.806657 1.66,-1.06 0.679996,-0.266657 1.486661,-0.39999 2.42,-0.4 0.559993,10e-6 1.066659,0.04001 1.52,0.12 0.453325,0.08001 1.260565,0.465881 1.72724,0.652538 l -0.88724,1.727462 c -0.266675,-0.09333 -0.566675,-0.173326 -0.9,-0.24 -0.320007,-0.07999 -0.73334,-0.119992 -1.24,-0.12 -0.586672,8e-6 -1.080005,0.07334 -1.48,0.22 -0.386671,0.133341 -0.700004,0.326674 -0.94,0.58 -0.240004,0.240007 -0.413337,0.53334 -0.52,0.88 -0.10667,0.346673 -0.160003,0.720006 -0.16,1.12 -3e-6,0.866671 0.239996,1.54667 0.72,2.04 0.493329,0.493336 1.326661,0.740002 2.5,0.74 0.38666,2e-6 0.786659,-0.02666 1.2,-0.08 0.426659,-0.05333 0.813325,-0.139997 1.16,-0.26 l 0.36,2.02 c -0.346676,0.133334 -0.766675,0.24 -1.26,0.32 -0.493341,0.09333 -1.07334,0.14 -1.74,0.14 -0.960005,0 -1.786671,-0.126666 -2.48,-0.38 -0.680003,-0.253332 -1.240002,-0.599999 -1.68,-1.04 -0.440002,-0.439998 -0.766668,-0.959997 -0.98,-1.56 -0.200001,-0.599996 -0.300001,-1.246662 -0.3,-1.94" />
            <path
               sodipodi:nodetypes="ccccccccccscccccccccccccccccccccssscccc"
               inkscape:connector-curvature="0"
               id="path3809"
               style="font-size:20px;font-weight:bold;line-height:130.99999428000000989%;letter-spacing:-3.20999932000000010px;fill:#f9f9f9;fill-opacity:1;stroke:#4d4d4d;stroke-width:0;stroke-miterlimit:4;stroke-dasharray:none;font-family:Ubuntu Mono;-inkscape-font-specification:Ubuntu Mono Bold"
               d="m 66.427837,28.429786 c 0.599995,2e-6 1.059994,-0.04 1.38,-0.12 0.319994,-0.09333 0.479994,-0.273331 0.48,-0.54 -6e-6,-0.17333 -0.05334,-0.319997 -0.16,-0.44 -0.09334,-0.119996 -0.233339,-0.219996 -0.42,-0.3 -0.173339,-0.09333 -0.380005,-0.179996 -0.62,-0.26 -0.226672,-0.08 -0.466671,-0.159996 -0.72,-0.24 -0.360004,-0.106662 -0.72667,-0.226662 -1.1,-0.36 -0.373336,-0.146662 -0.713336,-0.326662 -1.02,-0.54 -0.306669,-0.213328 -0.560002,-0.479994 -0.76,-0.8 -0.200001,-0.333327 -0.300001,-0.74666 -0.3,-1.24 -1e-6,-0.399992 0.07333,-0.773325 0.22,-1.12 0.159998,-0.359991 0.399998,-0.673324 0.72,-0.94 0.333331,-0.27999 0.75333,-0.493324 1.26,-0.64 0.506663,-0.15999 1.113329,-0.23999 1.82,-0.24 0.613327,10e-6 1.179994,0.04668 1.7,0.14 0.533326,0.09334 0.993325,0.226676 1.38,0.4 l -0.38,2.08 c -0.226674,-0.06666 -0.580007,-0.173326 -1.06,-0.32 -0.480006,-0.159992 -1.020006,-0.239992 -1.62,-0.24 -0.626671,8e-6 -1.053338,0.08001 -1.28,0.24 -0.213337,0.146674 -0.320004,0.306674 -0.32,0.48 -4e-6,0.146674 0.04666,0.280007 0.14,0.4 0.106663,0.106674 0.239996,0.206673 0.4,0.3 0.173329,0.09334 0.366662,0.186673 0.58,0.28 0.226662,0.08001 0.466661,0.160006 0.72,0.24 0.359994,0.120006 0.733327,0.253339 1.12,0.4 0.38666,0.146672 0.733326,0.333339 1.04,0.56 0.319992,0.213338 0.579992,0.493338 0.78,0.84 0.199991,0.333337 0.299991,0.74667 0.3,1.24 -9e-6,0.386669 -0.07334,0.753336 -0.22,1.1 -0.146675,0.346668 -0.393342,0.646668 -0.74,0.9 -0.333341,0.253334 -0.77334,0.453334 -1.32,0.6 -0.546673,0.146667 -1.220005,0.22 -2.02,0.22 -0.813337,0 -1.50667,-0.09333 -2.08,-0.28 -0.573335,-0.186666 -1.033335,-0.353332 -1.38,-0.5 l 1.137614,-1.744327 c 0.466665,0.18667 0.202384,0.04433 0.722386,0.204327 0.53333,0.160002 1.073329,0.240002 1.62,0.24" />
          </g>
        </g>
        <text
           xml:space="preserve"
           style="font-size:7.90380764000000013px;font-style:normal;font-variant:normal;font-weight:500;font-stretch:normal;line-height:0%;letter-spacing:-0.06808316000000000px;word-spacing:0px;fill:#f9f9f9;fill-opacity:1;stroke:none;font-family:Ubuntu;-inkscape-font-specification:Ubuntu Medium"
           x="49.488586"
           y="51.984261"
           id="text3811"
           sodipodi:linespacing="0%"
           transform="scale(1.4555515,0.68702482)"><tspan
             sodipodi:role="line"
             id="tspan3813"
             x="49.488586"
             y="51.984261"
             style="font-size:7.90380764000000013px;font-style:normal;font-variant:normal;font-weight:normal;font-stretch:normal;line-height:0%;letter-spacing:-0.06808316000000000px;fill:#f9f9f9;fill-opacity:1;font-family:Ubuntu;-inkscape-font-specification:Ubuntu">KKM</tspan></text>
      </g>
    </g>
  </g>
</svg>
